<svg xmlns="http://www.w3.org/2000/svg" xmlns:xlink="http://www.w3.org/1999/xlink" width="1080" zoomAndPan="magnify" viewBox="0 0 810 809.999993" height="1080" preserveAspectRatio="xMidYMid meet" version="1.0"><defs><g/><clipPath id="d98d938568"><path d="M 59.972656 59.972656 L 749.972656 59.972656 L 749.972656 749.972656 L 59.972656 749.972656 Z M 59.972656 59.972656 " clip-rule="nonzero"/></clipPath></defs><g clip-path="url(#d98d938568)"><path fill="#008847" d="M 524.203125 305.660156 L 275.800781 305.660156 C 284.699219 257.789062 319.75 218.816406 365.449219 204.277344 C 362.691406 202.078125 361.09375 199.625 361.09375 197.027344 C 361.09375 189.074219 375.53125 182.4375 394.902344 180.691406 L 401.308594 147.277344 C 389.808594 145.5 380.996094 135.585938 380.996094 123.589844 C 380.996094 110.332031 391.742188 99.585938 404.996094 99.585938 C 418.246094 99.585938 428.992188 110.332031 428.992188 123.589844 C 428.992188 135.585938 420.179688 145.5 408.683594 147.277344 L 415.085938 180.691406 C 434.457031 182.4375 448.898438 189.074219 448.898438 197.027344 C 448.898438 199.625 447.296875 202.078125 444.542969 204.277344 C 490.230469 218.816406 525.289062 257.78125 534.1875 305.660156 Z M 470.230469 367.265625 C 457.414062 367.265625 447.027344 356.875 447.027344 344.058594 C 447.027344 338.53125 449.039062 333.523438 452.265625 329.542969 L 452.21875 329.984375 C 452.21875 335.023438 456.304688 339.113281 461.351562 339.113281 C 466.398438 339.113281 470.480469 335.023438 470.480469 329.984375 C 470.480469 326.179688 468.144531 322.917969 464.828125 321.554688 C 466.574219 321.132812 468.367188 320.855469 470.230469 320.855469 C 483.050781 320.855469 493.4375 331.242188 493.4375 344.058594 C 493.4375 356.875 483.050781 367.265625 470.230469 367.265625 Z M 339.757812 367.265625 C 326.941406 367.265625 316.554688 356.875 316.554688 344.058594 C 316.554688 338.53125 318.5625 333.523438 321.792969 329.542969 L 321.746094 329.984375 C 321.746094 335.023438 325.839844 339.113281 330.875 339.113281 C 335.914062 339.113281 340.007812 335.023438 340.007812 329.984375 C 340.007812 326.179688 337.667969 322.917969 334.363281 321.554688 C 336.101562 321.132812 337.886719 320.855469 339.757812 320.855469 C 352.574219 320.855469 362.964844 331.242188 362.964844 344.058594 C 362.964844 356.875 352.574219 367.265625 339.757812 367.265625 Z M 367.894531 656.726562 L 408.355469 652.085938 L 367.894531 647.433594 L 367.894531 634.925781 L 408.355469 630.285156 L 367.894531 625.632812 L 367.894531 613.128906 L 408.355469 608.476562 L 367.894531 603.835938 L 367.894531 592.949219 C 367.894531 592.398438 367.949219 591.863281 367.980469 591.3125 L 408.355469 586.675781 L 369.5 582.222656 C 374.136719 567.003906 388.320312 555.847656 404.996094 555.847656 C 425.398438 555.847656 442.097656 572.539062 442.097656 592.949219 L 442.097656 673.300781 C 442.097656 693.703125 425.398438 710.40625 404.996094 710.40625 C 386.355469 710.40625 370.851562 696.453125 368.304688 678.480469 L 408.355469 673.886719 L 367.894531 669.242188 Z M 750.007812 404.996094 C 750.007812 214.453125 595.535156 59.984375 404.996094 59.984375 C 214.453125 59.984375 59.984375 214.453125 59.984375 404.996094 C 59.984375 595.535156 214.453125 750.007812 404.996094 750.007812 C 527.472656 750.007812 635.027344 686.183594 696.257812 589.984375 C 691.695312 596.335938 685.722656 601.597656 678.792969 605.300781 L 678.792969 586.445312 C 685.878906 579.9375 690.351562 570.621094 690.351562 560.242188 C 690.351562 540.585938 674.421875 524.648438 654.761719 524.648438 C 635.105469 524.648438 619.167969 540.585938 619.167969 560.242188 C 619.167969 570.621094 623.640625 579.9375 630.726562 586.445312 L 630.726562 605.300781 C 614.640625 596.707031 603.703125 579.753906 603.703125 560.242188 C 603.703125 535.40625 621.425781 514.726562 644.917969 510.136719 L 644.917969 494.933594 L 640.804688 494.933594 L 640.804688 421.507812 L 626.792969 421.507812 L 626.792969 424.769531 L 536.421875 424.769531 L 536.421875 518.980469 C 536.421875 574.109375 502.007812 621.558594 453.617188 640.992188 L 453.617188 592.949219 C 453.617188 566.140625 431.800781 544.328125 404.996094 544.328125 C 378.1875 544.328125 356.371094 566.140625 356.371094 592.949219 L 356.371094 640.992188 C 307.980469 621.558594 273.566406 574.109375 273.566406 518.980469 L 273.566406 424.769531 L 183.199219 424.769531 L 183.199219 421.507812 L 140.941406 421.507812 L 140.941406 319.84375 L 145.050781 319.84375 L 145.050781 304.582031 C 121.726562 299.863281 104.167969 279.25 104.167969 254.539062 C 104.167969 235.019531 115.113281 218.074219 131.199219 209.472656 L 131.199219 228.328125 C 124.109375 234.84375 119.640625 244.152344 119.640625 254.539062 C 119.640625 274.195312 135.570312 290.125 155.226562 290.125 C 174.882812 290.125 190.824219 274.195312 190.824219 254.539062 C 190.824219 244.152344 186.351562 234.84375 179.261719 228.328125 L 179.261719 209.472656 C 195.339844 218.074219 206.289062 235.019531 206.289062 254.539062 C 206.289062 279.367188 188.5625 300.046875 165.070312 304.644531 L 165.070312 319.84375 L 169.1875 319.84375 L 169.1875 393.265625 L 183.199219 393.265625 L 183.199219 390.011719 L 273.566406 390.011719 L 273.566406 382.457031 L 536.421875 382.457031 L 536.421875 390.011719 L 626.792969 390.011719 L 626.792969 393.265625 L 669.046875 393.265625 L 669.046875 494.933594 L 664.941406 494.933594 L 664.941406 510.199219 C 688.261719 514.910156 705.824219 535.523438 705.824219 560.242188 C 705.824219 569.007812 703.601562 577.246094 699.707031 584.449219 C 731.613281 532.160156 750.007812 470.730469 750.007812 404.996094 " fill-opacity="1" fill-rule="nonzero"/></g><g fill="#000000" fill-opacity="1"><g transform="translate(194.749549, 188.53308)"><g><path d="M 0.03125 0 L 0.03125 -0.03125 L 0.140625 -0.03125 L 0.140625 -0.359375 C 0.117188 -0.347656 0.0976562 -0.335938 0.078125 -0.328125 C 0.0664062 -0.316406 0.0507812 -0.3125 0.03125 -0.3125 L 0.03125 -0.359375 C 0.0507812 -0.359375 0.0703125 -0.363281 0.09375 -0.375 C 0.113281 -0.382812 0.132812 -0.394531 0.15625 -0.40625 L 0.1875 -0.40625 L 0.1875 -0.03125 L 0.28125 -0.03125 L 0.28125 0 Z M 0.03125 0 "/></g></g></g></svg>