<svg width="49" height="49" viewBox="0 0 49 49" fill="none" xmlns="http://www.w3.org/2000/svg">
<rect x="0.5" y="0.5" width="48" height="48" rx="24" fill="#EEF3ED"/>
<path d="M43.34 22.344C43.698 22.1861 44.0018 21.9266 44.2138 21.5976C44.4258 21.2687 44.5367 20.8848 44.5326 20.4935C44.5286 20.1022 44.4098 19.7207 44.1911 19.3962C43.9723 19.0717 43.6632 18.8185 43.302 18.668L26.16 10.86C25.6388 10.6223 25.0727 10.4993 24.5 10.4993C23.9272 10.4993 23.3611 10.6223 22.84 10.86L5.69996 18.66C5.3439 18.816 5.04099 19.0723 4.8283 19.3976C4.6156 19.723 4.50232 20.1033 4.50232 20.492C4.50232 20.8807 4.6156 21.261 4.8283 21.5864C5.04099 21.9117 5.3439 22.1681 5.69996 22.324L22.84 30.14C23.3611 30.3777 23.9272 30.5007 24.5 30.5007C25.0727 30.5007 25.6388 30.3777 26.16 30.14L43.34 22.344Z" stroke="#008847" stroke-width="2" stroke-linecap="round" stroke-linejoin="round"/>
<path d="M44.5 20.5V32.5" stroke="#008847" stroke-width="2" stroke-linecap="round" stroke-linejoin="round"/>
<path d="M12.5 25.5V32.5C12.5 34.0913 13.7643 35.6174 16.0147 36.7426C18.2652 37.8679 21.3174 38.5 24.5 38.5C27.6826 38.5 30.7348 37.8679 32.9853 36.7426C35.2357 35.6174 36.5 34.0913 36.5 32.5V25.5" stroke="#008847" stroke-width="2" stroke-linecap="round" stroke-linejoin="round"/>
</svg>
