<svg width="49" height="48" viewBox="0 0 49 48" fill="none" xmlns="http://www.w3.org/2000/svg">
<rect x="0.5" width="48" height="48" rx="24" fill="#891212"/>
<path d="M26.5859 26.8789V14.9375H29.5156V26.8789C29.5156 28.0117 29.2734 28.9766 28.7891 29.7734C28.3047 30.5703 27.6445 31.1797 26.8086 31.6016C25.9727 32.0234 25.0234 32.2344 23.9609 32.2344C22.875 32.2344 21.9102 32.0508 21.0664 31.6836C20.2305 31.3164 19.5742 30.7539 19.0977 29.9961C18.6211 29.2383 18.3828 28.2773 18.3828 27.1133H21.3359C21.3359 27.7852 21.4414 28.3281 21.6523 28.7422C21.8711 29.1484 22.1758 29.4453 22.5664 29.6328C22.9648 29.8125 23.4297 29.9023 23.9609 29.9023C24.4688 29.9023 24.918 29.7891 25.3086 29.5625C25.707 29.3281 26.0195 28.9883 26.2461 28.543C26.4727 28.0898 26.5859 27.5352 26.5859 26.8789Z" fill="white"/>
</svg>
