<svg width="49" height="49" viewBox="0 0 49 49" fill="none" xmlns="http://www.w3.org/2000/svg">
<rect x="0.5" y="0.5" width="48" height="48" rx="24" fill="#EEF3ED"/>
<path d="M8.5 40.5H40.5C41.5609 40.5 42.5783 40.0786 43.3284 39.3284C44.0786 38.5783 44.5 37.5609 44.5 36.5V16.5C44.5 15.4391 44.0786 14.4217 43.3284 13.6716C42.5783 12.9214 41.5609 12.5 40.5 12.5H24.64C23.9812 12.4966 23.3334 12.3305 22.7542 12.0165C22.175 11.7025 21.6824 11.2502 21.32 10.7L19.68 8.3C19.3176 7.74976 18.825 7.29754 18.2458 6.98352C17.6666 6.6695 17.0188 6.50341 16.36 6.5H8.5C7.43913 6.5 6.42172 6.92143 5.67157 7.67157C4.92143 8.42172 4.5 9.43913 4.5 10.5V36.5C4.5 38.7 6.3 40.5 8.5 40.5Z" stroke="#008847" stroke-width="2" stroke-linecap="round" stroke-linejoin="round"/>
<path d="M24.5 30.5C26.7091 30.5 28.5 28.7091 28.5 26.5C28.5 24.2909 26.7091 22.5 24.5 22.5C22.2909 22.5 20.5 24.2909 20.5 26.5C20.5 28.7091 22.2909 30.5 24.5 30.5Z" stroke="#008847" stroke-width="2" stroke-linecap="round" stroke-linejoin="round"/>
<path d="M24.5 30.5V40.5" stroke="#008847" stroke-width="2" stroke-linecap="round" stroke-linejoin="round"/>
</svg>
