<svg width="49" height="48" viewBox="0 0 49 48" fill="none" xmlns="http://www.w3.org/2000/svg">
<rect x="0.5" width="48" height="48" rx="24" fill="#EEF3ED"/>
<path d="M29.562 24.938L13.738 40.76C12.9424 41.5556 11.8632 42.0026 10.738 42.0026C9.61278 42.0026 8.53365 41.5556 7.738 40.76C6.94235 39.9643 6.49536 38.8852 6.49536 37.76C6.49536 36.6348 6.94235 35.5556 7.738 34.76L23.562 18.936" stroke="#008847" stroke-width="2" stroke-linecap="round" stroke-linejoin="round"/>
<path d="M31.872 8.62798C28.8526 6.74696 25.4664 5.53202 21.9398 5.06433C18.4132 4.59665 14.8274 4.887 11.422 5.91598C11.1189 6.10898 10.8733 6.38011 10.7112 6.70084C10.549 7.02158 10.4763 7.38008 10.5007 7.73864C10.525 8.09721 10.6456 8.44258 10.8496 8.73845C11.0536 9.03432 11.3336 9.26975 11.66 9.41998C16.2148 10.9756 20.4836 13.2681 24.296 16.206" stroke="#008847" stroke-width="2" stroke-linecap="round" stroke-linejoin="round"/>
<path d="M35.9 7.40002C35.5261 7.03357 35.0235 6.82831 34.5 6.82831C33.9765 6.82831 33.4738 7.03357 33.1 7.40002L23.9 16.6C23.5335 16.9739 23.3282 17.4765 23.3282 18C23.3282 18.5235 23.5335 19.0262 23.9 19.4L29.1 24.6C29.4738 24.9665 29.9765 25.1717 30.5 25.1717C31.0235 25.1717 31.5261 24.9665 31.9 24.6L41.1 15.4C41.4664 15.0262 41.6717 14.5235 41.6717 14C41.6717 13.4765 41.4664 12.9739 41.1 12.6L35.9 7.40002Z" stroke="#008847" stroke-width="2" stroke-linecap="round" stroke-linejoin="round"/>
<path d="M39.872 16.628C41.7529 19.6475 42.9678 23.0337 43.4355 26.5602C43.9032 30.0868 43.6129 33.6726 42.584 37.078C42.3909 37.3807 42.1198 37.6257 41.7993 37.7875C41.4788 37.9493 41.1206 38.0219 40.7624 37.9975C40.4042 37.9732 40.0592 37.8528 39.7635 37.6492C39.4678 37.4455 39.2324 37.166 39.082 36.84C37.5266 32.2845 35.2341 28.0151 32.296 24.202" stroke="#008847" stroke-width="2" stroke-linecap="round" stroke-linejoin="round"/>
</svg>
