<svg xmlns="http://www.w3.org/2000/svg" xmlns:xlink="http://www.w3.org/1999/xlink" width="1900" zoomAndPan="magnify" viewBox="0 0 1425 809.999993" height="1080" preserveAspectRatio="xMidYMid meet" version="1.0"><defs><g/><clipPath id="29ab7c5745"><path d="M 0 179.445312 L 450.75 179.445312 L 450.75 630.195312 L 0 630.195312 Z M 0 179.445312 " clip-rule="nonzero"/></clipPath></defs><g clip-path="url(#29ab7c5745)"><path fill="#008847" d="M 303.480469 340.058594 L 141.09375 340.058594 C 146.910156 308.765625 169.824219 283.289062 199.699219 273.78125 C 197.894531 272.34375 196.851562 270.742188 196.851562 269.042969 C 196.851562 263.84375 206.289062 259.503906 218.953125 258.363281 L 223.140625 236.519531 C 215.625 235.359375 209.863281 228.875 209.863281 221.035156 C 209.863281 212.367188 216.886719 205.34375 225.550781 205.34375 C 234.214844 205.34375 241.238281 212.367188 241.238281 221.035156 C 241.238281 228.875 235.476562 235.359375 227.960938 236.519531 L 232.148438 258.363281 C 244.8125 259.503906 254.25 263.84375 254.25 269.042969 C 254.25 270.742188 253.207031 272.34375 251.402344 273.78125 C 281.273438 283.289062 304.191406 308.761719 310.007812 340.058594 Z M 268.199219 380.332031 C 259.820312 380.332031 253.027344 373.539062 253.027344 365.160156 C 253.027344 361.546875 254.34375 358.273438 256.453125 355.671875 L 256.421875 355.960938 C 256.421875 359.253906 259.09375 361.929688 262.390625 361.929688 C 265.691406 361.929688 268.359375 359.253906 268.359375 355.960938 C 268.359375 353.472656 266.832031 351.339844 264.664062 350.449219 C 265.808594 350.175781 266.980469 349.992188 268.199219 349.992188 C 276.578125 349.992188 283.367188 356.78125 283.367188 365.160156 C 283.367188 373.539062 276.578125 380.332031 268.199219 380.332031 Z M 182.902344 380.332031 C 174.523438 380.332031 167.734375 373.539062 167.734375 365.160156 C 167.734375 361.546875 169.046875 358.273438 171.160156 355.671875 L 171.128906 355.960938 C 171.128906 359.253906 173.804688 361.929688 177.097656 361.929688 C 180.390625 361.929688 183.066406 359.253906 183.066406 355.960938 C 183.066406 353.472656 181.539062 351.339844 179.375 350.449219 C 180.511719 350.175781 181.679688 349.992188 182.902344 349.992188 C 191.28125 349.992188 198.074219 356.78125 198.074219 365.160156 C 198.074219 373.539062 191.28125 380.332031 182.902344 380.332031 Z M 201.296875 569.558594 L 227.75 566.527344 L 201.296875 563.484375 L 201.296875 555.308594 L 227.75 552.273438 L 201.296875 549.234375 L 201.296875 541.058594 L 227.75 538.019531 L 201.296875 534.984375 L 201.296875 527.867188 C 201.296875 527.507812 201.332031 527.15625 201.351562 526.796875 L 227.75 523.765625 L 202.347656 520.855469 C 205.375 510.90625 214.648438 503.613281 225.550781 503.613281 C 238.886719 503.613281 249.804688 514.523438 249.804688 527.867188 L 249.804688 580.394531 C 249.804688 593.734375 238.886719 604.652344 225.550781 604.652344 C 213.363281 604.652344 203.230469 595.53125 201.566406 583.78125 L 227.75 580.777344 L 201.296875 577.742188 Z M 451.09375 404.996094 C 451.09375 280.4375 350.113281 179.453125 225.550781 179.453125 C 100.988281 179.453125 0.0078125 280.4375 0.0078125 404.996094 C 0.0078125 529.558594 100.988281 630.539062 225.550781 630.539062 C 305.617188 630.539062 375.929688 588.816406 415.957031 525.929688 C 412.972656 530.082031 409.070312 533.519531 404.539062 535.941406 L 404.539062 523.613281 C 409.171875 519.363281 412.09375 513.269531 412.09375 506.484375 C 412.09375 493.636719 401.679688 483.214844 388.832031 483.214844 C 375.980469 483.214844 365.5625 493.636719 365.5625 506.484375 C 365.5625 513.269531 368.484375 519.363281 373.117188 523.613281 L 373.117188 535.941406 C 362.601562 530.324219 355.449219 519.238281 355.449219 506.484375 C 355.449219 490.25 367.039062 476.730469 382.394531 473.730469 L 382.394531 463.792969 L 379.707031 463.792969 L 379.707031 415.792969 L 370.542969 415.792969 L 370.542969 417.921875 L 311.46875 417.921875 L 311.46875 479.511719 C 311.46875 515.550781 288.972656 546.570312 257.335938 559.273438 L 257.335938 527.867188 C 257.335938 510.34375 243.074219 496.082031 225.550781 496.082031 C 208.027344 496.082031 193.765625 510.34375 193.765625 527.867188 L 193.765625 559.273438 C 162.132812 546.570312 139.632812 515.550781 139.632812 479.511719 L 139.632812 417.921875 L 80.558594 417.921875 L 80.558594 415.792969 L 52.933594 415.792969 L 52.933594 349.332031 L 55.617188 349.332031 L 55.617188 339.355469 C 40.371094 336.269531 28.890625 322.792969 28.890625 306.640625 C 28.890625 293.878906 36.046875 282.800781 46.5625 277.175781 L 46.5625 289.503906 C 41.929688 293.761719 39.007812 299.847656 39.007812 306.640625 C 39.007812 319.488281 49.421875 329.902344 62.269531 329.902344 C 75.121094 329.902344 85.539062 319.488281 85.539062 306.640625 C 85.539062 299.847656 82.617188 293.761719 77.984375 289.503906 L 77.984375 277.175781 C 88.496094 282.800781 95.652344 293.878906 95.652344 306.640625 C 95.652344 322.871094 84.0625 336.390625 68.707031 339.394531 L 68.707031 349.332031 L 71.394531 349.332031 L 71.394531 397.328125 L 80.558594 397.328125 L 80.558594 395.203125 L 139.632812 395.203125 L 139.632812 390.261719 L 311.46875 390.261719 L 311.46875 395.203125 L 370.542969 395.203125 L 370.542969 397.328125 L 398.167969 397.328125 L 398.167969 463.792969 L 395.484375 463.792969 L 395.484375 473.769531 C 410.730469 476.851562 422.210938 490.328125 422.210938 506.484375 C 422.210938 512.214844 420.757812 517.601562 418.210938 522.308594 C 439.070312 488.128906 451.09375 447.96875 451.09375 404.996094 " fill-opacity="1" fill-rule="nonzero"/></g><g fill="#000000" fill-opacity="1"><g transform="translate(342.61496, 24.17855)"><g><path d="M 0.046875 0 L 0.046875 -0.0625 L 0.25 -0.0625 L 0.25 -0.609375 L 0.234375 -0.625 C 0.203125 -0.601562 0.171875 -0.585938 0.140625 -0.578125 C 0.117188 -0.566406 0.09375 -0.5625 0.0625 -0.5625 L 0.0625 -0.640625 C 0.09375 -0.640625 0.125 -0.644531 0.15625 -0.65625 C 0.195312 -0.675781 0.234375 -0.695312 0.265625 -0.71875 L 0.328125 -0.71875 L 0.328125 -0.0625 L 0.5 -0.0625 L 0.5 0 Z M 0.046875 0 "/></g></g></g><g fill="#008847" fill-opacity="1"><g transform="translate(514.046356, 460.848051)"><g><path d="M 101.109375 -37.671875 C 99.640625 -25.109375 95.003906 -15.414062 87.203125 -8.59375 C 79.398438 -1.78125 69.03125 1.625 56.09375 1.625 C 42.070312 1.625 30.832031 -3.398438 22.375 -13.453125 C 13.925781 -23.503906 9.703125 -36.957031 9.703125 -53.8125 L 9.703125 -65.234375 C 9.703125 -76.265625 11.671875 -85.960938 15.609375 -94.328125 C 19.554688 -102.703125 25.144531 -109.128906 32.375 -113.609375 C 39.601562 -118.097656 47.972656 -120.34375 57.484375 -120.34375 C 70.097656 -120.34375 80.207031 -116.820312 87.8125 -109.78125 C 95.425781 -102.75 99.859375 -93.007812 101.109375 -80.5625 L 85.375 -80.5625 C 84.007812 -90.019531 81.054688 -96.867188 76.515625 -101.109375 C 71.984375 -105.347656 65.640625 -107.46875 57.484375 -107.46875 C 47.484375 -107.46875 39.640625 -103.769531 33.953125 -96.375 C 28.273438 -88.976562 25.4375 -78.460938 25.4375 -64.828125 L 25.4375 -53.328125 C 25.4375 -40.441406 28.125 -30.191406 33.5 -22.578125 C 38.882812 -14.972656 46.414062 -11.171875 56.09375 -11.171875 C 64.789062 -11.171875 71.460938 -13.140625 76.109375 -17.078125 C 80.753906 -21.023438 83.84375 -27.890625 85.375 -37.671875 Z M 101.109375 -37.671875 "/></g></g></g><g fill="#008847" fill-opacity="1"><g transform="translate(622.729439, 460.848051)"><g><path d="M 53.078125 -20.796875 L 87 -118.71875 L 104.125 -118.71875 L 60.09375 0 L 46.234375 0 L 2.28125 -118.71875 L 19.328125 -118.71875 Z M 53.078125 -20.796875 "/></g></g></g><g fill="#008847" fill-opacity="1"><g transform="translate(728.966541, 460.848051)"><g/></g></g><g fill="#008847" fill-opacity="1"><g transform="translate(770.303635, 460.848051)"><g><path d="M 13.78125 0 L 13.78125 -118.71875 L 52.59375 -118.71875 C 65.476562 -118.71875 75.164062 -116.050781 81.65625 -110.71875 C 88.15625 -105.394531 91.40625 -97.515625 91.40625 -87.078125 C 91.40625 -81.535156 89.828125 -76.628906 86.671875 -72.359375 C 83.515625 -68.097656 79.222656 -64.796875 73.796875 -62.453125 C 80.203125 -60.660156 85.265625 -57.25 88.984375 -52.21875 C 92.710938 -47.195312 94.578125 -41.207031 94.578125 -34.25 C 94.578125 -23.59375 91.125 -15.21875 84.21875 -9.125 C 77.320312 -3.039062 67.566406 0 54.953125 0 Z M 29.4375 -55.53125 L 29.4375 -12.796875 L 55.28125 -12.796875 C 62.5625 -12.796875 68.304688 -14.6875 72.515625 -18.46875 C 76.734375 -22.25 78.84375 -27.453125 78.84375 -34.078125 C 78.84375 -48.378906 71.070312 -55.53125 55.53125 -55.53125 Z M 29.4375 -68.078125 L 53.078125 -68.078125 C 59.929688 -68.078125 65.410156 -69.789062 69.515625 -73.21875 C 73.617188 -76.644531 75.671875 -81.289062 75.671875 -87.15625 C 75.671875 -93.6875 73.765625 -98.429688 69.953125 -101.390625 C 66.148438 -104.347656 60.363281 -105.828125 52.59375 -105.828125 L 29.4375 -105.828125 Z M 29.4375 -68.078125 "/></g></g></g><g fill="#008847" fill-opacity="1"><g transform="translate(874.257822, 460.848051)"><g><path d="M 97.359375 -118.71875 L 97.359375 -38 C 97.296875 -26.800781 93.769531 -17.640625 86.78125 -10.515625 C 79.800781 -3.398438 70.332031 0.59375 58.375 1.46875 L 54.21875 1.625 C 41.226562 1.625 30.875 -1.878906 23.15625 -8.890625 C 15.4375 -15.898438 11.523438 -25.546875 11.421875 -37.828125 L 11.421875 -118.71875 L 26.90625 -118.71875 L 26.90625 -38.328125 C 26.90625 -29.734375 29.269531 -23.054688 34 -18.296875 C 38.726562 -13.546875 45.46875 -11.171875 54.21875 -11.171875 C 63.082031 -11.171875 69.863281 -13.535156 74.5625 -18.265625 C 79.257812 -22.992188 81.609375 -29.648438 81.609375 -38.234375 L 81.609375 -118.71875 Z M 97.359375 -118.71875 "/></g></g></g><g fill="#008847" fill-opacity="1"><g transform="translate(982.533234, 460.848051)"><g><path d="M 30.578125 0 L 14.921875 0 L 14.921875 -118.71875 L 30.578125 -118.71875 Z M 30.578125 0 "/></g></g></g><g fill="#008847" fill-opacity="1"><g transform="translate(1027.946937, 460.848051)"><g><path d="M 29.515625 -12.796875 L 85.78125 -12.796875 L 85.78125 0 L 13.78125 0 L 13.78125 -118.71875 L 29.515625 -118.71875 Z M 29.515625 -12.796875 "/></g></g></g><g fill="#008847" fill-opacity="1"><g transform="translate(1117.795974, 460.848051)"><g><path d="M 13.78125 0 L 13.78125 -118.71875 L 47.296875 -118.71875 C 57.617188 -118.71875 66.75 -116.429688 74.6875 -111.859375 C 82.625 -107.296875 88.75 -100.800781 93.0625 -92.375 C 97.382812 -83.945312 99.578125 -74.273438 99.640625 -63.359375 L 99.640625 -55.765625 C 99.640625 -44.566406 97.476562 -34.753906 93.15625 -26.328125 C 88.832031 -17.910156 82.660156 -11.441406 74.640625 -6.921875 C 66.628906 -2.410156 57.296875 -0.101562 46.640625 0 Z M 29.4375 -105.828125 L 29.4375 -12.796875 L 45.90625 -12.796875 C 57.96875 -12.796875 67.351562 -16.546875 74.0625 -24.046875 C 80.78125 -31.554688 84.140625 -42.238281 84.140625 -56.09375 L 84.140625 -63.03125 C 84.140625 -76.507812 80.972656 -86.984375 74.640625 -94.453125 C 68.304688 -101.929688 59.328125 -105.722656 47.703125 -105.828125 Z M 29.4375 -105.828125 "/></g></g></g><g fill="#008847" fill-opacity="1"><g transform="translate(1227.294358, 460.848051)"><g><path d="M 80.890625 -54.875 L 29.4375 -54.875 L 29.4375 -12.796875 L 89.203125 -12.796875 L 89.203125 0 L 13.78125 0 L 13.78125 -118.71875 L 88.390625 -118.71875 L 88.390625 -105.828125 L 29.4375 -105.828125 L 29.4375 -67.671875 L 80.890625 -67.671875 Z M 80.890625 -54.875 "/></g></g></g><g fill="#008847" fill-opacity="1"><g transform="translate(1322.198436, 460.848051)"><g><path d="M 57.3125 -48.03125 L 29.4375 -48.03125 L 29.4375 0 L 13.703125 0 L 13.703125 -118.71875 L 53 -118.71875 C 66.375 -118.71875 76.660156 -115.671875 83.859375 -109.578125 C 91.054688 -103.492188 94.65625 -94.632812 94.65625 -83 C 94.65625 -75.613281 92.65625 -69.171875 88.65625 -63.671875 C 84.664062 -58.179688 79.113281 -54.082031 72 -51.375 L 99.875 -0.984375 L 99.875 0 L 83.078125 0 Z M 29.4375 -60.828125 L 53.484375 -60.828125 C 61.253906 -60.828125 67.4375 -62.835938 72.03125 -66.859375 C 76.625 -70.878906 78.921875 -76.257812 78.921875 -83 C 78.921875 -90.34375 76.734375 -95.96875 72.359375 -99.875 C 67.984375 -103.789062 61.664062 -105.773438 53.40625 -105.828125 L 29.4375 -105.828125 Z M 29.4375 -60.828125 "/></g></g></g></svg>